{
  "accessors": [
    {
      "bufferView": 2,
      "componentType": 5126,
      "count": 19619,
      "max": [
        0.613480806350708,
        0.32249945402145386,
        0.7018455266952515
      ],
      "min": [
        -0.5510377287864685,
        -0.43723034858703613,
        -0.6396827697753906
      ],
      "type": "VEC3"
    },
    {
      "bufferView": 2,
      "byteOffset": 235428,
      "componentType": 5126,
      "count": 19619,
      "max": [
        0.9999359846115112,
        1.0,
        0.9999681711196899
      ],
      "min": [
        -0.999950647354126,
        -0.9993331432342529,
        -0.9999666810035706
      ],
      "type": "VEC3"
    },
    {
      "bufferView": 3,
      "componentType": 5126,
      "count": 19619,
      "max": [
        0.9999721050262451,
        0.9999945163726807,
        0.9999924898147583,
        1.0
      ],
      "min": [
        -0.9999960660934448,
        -0.9999991655349731,
        -0.9999620914459229,
        -1.0
      ],
      "type": "VEC4"
    },
    {
      "bufferView": 1,
      "componentType": 5126,
      "count": 19619,
      "max": [
        0.9959554672241211,
        0.9967344403266907
      ],
      "min": [
        5.972873623250052e-05,
        4.172325134277344e-06
      ],
      "type": "VEC2"
    },
    {
      "bufferView": 1,
      "byteOffset": 156952,
      "componentType": 5126,
      "count": 19619,
      "max": [
        0.9959554672241211,
        0.9967344403266907
      ],
      "min": [
        5.972873623250052e-05,
        4.172325134277344e-06
      ],
      "type": "VEC2"
    },
    {
      "bufferView": 1,
      "byteOffset": 313904,
      "componentType": 5126,
      "count": 19619,
      "max": [
        0.9959554672241211,
        0.9967344403266907
      ],
      "min": [
        5.972873623250052e-05,
        4.172325134277344e-06
      ],
      "type": "VEC2"
    },
    {
      "bufferView": 0,
      "componentType": 5125,
      "count": 101946,
      "type": "SCALAR"
    }
  ],
  "asset": {
    "extras": {
      "author": "Ricus (https://sketchfab.com/ethelink)",
      "license": "CC-BY-4.0 (http://creativecommons.org/licenses/by/4.0/)",
      "source": "https://sketchfab.com/3d-models/paper-yacht-147720851c6e4c4eb3b66823bdabd0ce",
      "title": "Paper Yacht"
    },
    "generator": "Sketchfab-14.25.0",
    "version": "2.0"
  },
  "bufferViews": [
    {
      "buffer": 0,
      "byteLength": 407784,
      "name": "floatBufferViews",
      "target": 34963
    },
    {
      "buffer": 0,
      "byteLength": 470856,
      "byteOffset": 407784,
      "byteStride": 8,
      "name": "floatBufferViews",
      "target": 34962
    },
    {
      "buffer": 0,
      "byteLength": 470856,
      "byteOffset": 878640,
      "byteStride": 12,
      "name": "floatBufferViews",
      "target": 34962
    },
    {
      "buffer": 0,
      "byteLength": 313904,
      "byteOffset": 1349496,
      "byteStride": 16,
      "name": "floatBufferViews",
      "target": 34962
    }
  ],
  "buffers": [
    {
      "byteLength": 1663400,
      "uri": "scene.bin"
    }
  ],
  "images": [
    {
      "uri": "textures/Material_0_baseColor.jpeg"
    },
    {
      "uri": "textures/Material_0_metallicRoughness.png"
    },
    {
      "uri": "textures/Material_0_normal.jpeg"
    }
  ],
  "materials": [
    {
      "name": "Material_0",
      "normalTexture": {
        "index": 2
      },
      "occlusionTexture": {
        "index": 1
      },
      "pbrMetallicRoughness": {
        "baseColorTexture": {
          "index": 0
        },
        "metallicFactor": 0.0,
        "metallicRoughnessTexture": {
          "index": 1
        }
      }
    }
  ],
  "meshes": [
    {
      "name": "Object_0",
      "primitives": [
        {
          "attributes": {
            "NORMAL": 1,
            "POSITION": 0,
            "TANGENT": 2,
            "TEXCOORD_0": 3,
            "TEXCOORD_1": 4,
            "TEXCOORD_2": 5
          },
          "indices": 6,
          "material": 0,
          "mode": 4
        }
      ]
    }
  ],
  "nodes": [
    {
      "children": [
        1
      ],
      "matrix": [
        1.0,
        0.0,
        0.0,
        0.0,
        0.0,
        2.220446049250313e-16,
        -1.0,
        0.0,
        0.0,
        1.0,
        2.220446049250313e-16,
        0.0,
        0.0,
        0.0,
        0.0,
        1.0
      ],
      "name": "Sketchfab_model"
    },
    {
      "children": [
        2
      ],
      "name": "root"
    },
    {
      "children": [
        3
      ],
      "matrix": [
        1.0,
        0.0,
        0.0,
        0.0,
        0.0,
        2.220446049250313e-16,
        1.0,
        0.0,
        0.0,
        -1.0,
        2.220446049250313e-16,
        0.0,
        0.0,
        0.0,
        0.0,
        1.0
      ],
      "name": "GLTF_SceneRootNode"
    },
    {
      "children": [
        4
      ],
      "matrix": [
        4.872628688812256,
        0.0,
        0.0,
        0.0,
        0.0,
        4.872628688812256,
        0.0,
        0.0,
        0.0,
        0.0,
        4.872628688812256,
        0.0,
        0.0,
        2.078636407852173,
        0.0,
        1.0
      ],
      "name": "Mesh_0_0"
    },
    {
      "mesh": 0,
      "name": "Object_4"
    }
  ],
  "samplers": [
    {
      "magFilter": 9729,
      "minFilter": 9987,
      "wrapS": 10497,
      "wrapT": 10497
    }
  ],
  "scene": 0,
  "scenes": [
    {
      "name": "Sketchfab_Scene",
      "nodes": [
        0
      ]
    }
  ],
  "textures": [
    {
      "sampler": 0,
      "source": 0
    },
    {
      "sampler": 0,
      "source": 1
    },
    {
      "sampler": 0,
      "source": 2
    }
  ]
}
